# xmcd
#
# Track frame offsets:
#	150
#	28207
#	54477
#	92452
#	120727
#
# Disc length: 1914 seconds
#
# Revision: 1
# Processed by: cddbd v1.5.1PL0 Copyright (c) Steve Scherf et al.
# Submitted via: CDex 1.50Beta5
#
DISCID=39077805
DTITLE=吉田真里子 - kiki
DYEAR=1900
DGENRE=
TTITLE0=kiki
TTITLE1=piano dub. mix
TTITLE2=so breathy mix
TTITLE3=back track
TTITLE4=vocal track for remix (bpm130)
EXTD=
EXTT0=
EXTT1=
EXTT2=
EXTT3=
EXTT4=
PLAYORDER=
